<svg xmlns="http://www.w3.org/2000/svg" viewBox="0 0 84 102" fill="none">
  <defs>
    <linearGradient id="petalBase" x1="18" y1="14" x2="68" y2="92" gradientUnits="userSpaceOnUse">
      <stop offset="0" stop-color="#ffd9eb"/>
      <stop offset="0.55" stop-color="#f8a8ca"/>
      <stop offset="1" stop-color="#ee7db0"/>
    </linearGradient>
    <radialGradient id="petalLight" cx="0" cy="0" r="1" gradientUnits="userSpaceOnUse" gradientTransform="translate(42 26) rotate(90) scale(46 28)">
      <stop offset="0" stop-color="#fff7fc" stop-opacity="0.78"/>
      <stop offset="1" stop-color="#fff7fc" stop-opacity="0"/>
    </radialGradient>
    <radialGradient id="petalDepth" cx="0" cy="0" r="1" gradientUnits="userSpaceOnUse" gradientTransform="translate(44 88) rotate(90) scale(16 18)">
      <stop offset="0" stop-color="#c24d85" stop-opacity="0.62"/>
      <stop offset="1" stop-color="#c24d85" stop-opacity="0"/>
    </radialGradient>
  </defs>
  <path
    d="M42 7c11 0 23 10 25 23 2 16-9 34-25 67-16-33-27-51-25-67C19 17 31 7 42 7Z"
    fill="url(#petalBase)"
  />
  <path
    d="M42 18c7 0 14 6 15 14 1 9-6 19-15 35-9-16-16-26-15-35 1-8 8-14 15-14Z"
    fill="url(#petalLight)"
  />
  <path
    d="M42 86c5-1 10 1 13 5-4 6-8 9-13 10-5-1-9-4-13-10 3-4 8-6 13-5Z"
    fill="url(#petalDepth)"
  />
  <path
    d="M42 20v64"
    stroke="#f9c4dc"
    stroke-opacity=".58"
    stroke-width="2"
    stroke-linecap="round"
  />
</svg>
