<svg xmlns="http://www.w3.org/2000/svg" viewBox="0 0 256 256">
  <defs>
    <linearGradient id="woodA" x1="0" y1="0" x2="1" y2="1">
      <stop offset="0" stop-color="#b98aa2"/>
      <stop offset="1" stop-color="#8e5e79"/>
    </linearGradient>
    <linearGradient id="woodB" x1="1" y1="0" x2="0" y2="1">
      <stop offset="0" stop-color="#c79bb2"/>
      <stop offset="1" stop-color="#a26d8a"/>
    </linearGradient>
    <pattern id="grain" width="20" height="20" patternUnits="userSpaceOnUse">
      <path d="M0 10h20M0 5h20M0 15h20" stroke="rgba(64,27,44,0.1)" stroke-width="1"/>
    </pattern>
  </defs>

  <rect width="256" height="256" fill="#976884"/>

  <g>
    <rect x="0" y="0" width="64" height="128" fill="url(#woodA)"/>
    <rect x="64" y="0" width="64" height="128" fill="url(#woodB)"/>
    <rect x="128" y="0" width="64" height="128" fill="url(#woodA)"/>
    <rect x="192" y="0" width="64" height="128" fill="url(#woodB)"/>

    <rect x="0" y="128" width="128" height="64" fill="url(#woodB)"/>
    <rect x="128" y="128" width="128" height="64" fill="url(#woodA)"/>

    <rect x="0" y="192" width="64" height="64" fill="url(#woodA)"/>
    <rect x="64" y="192" width="64" height="64" fill="url(#woodB)"/>
    <rect x="128" y="192" width="64" height="64" fill="url(#woodA)"/>
    <rect x="192" y="192" width="64" height="64" fill="url(#woodB)"/>
  </g>

  <rect width="256" height="256" fill="url(#grain)" opacity="0.55"/>

  <path d="M0 128h256" stroke="rgba(247,227,236,0.14)" stroke-width="2"/>
  <path d="M128 0v256" stroke="rgba(247,227,236,0.1)" stroke-width="2"/>
</svg>
