<svg xmlns="http://www.w3.org/2000/svg" viewBox="0 0 256 256">
  <defs>
    <linearGradient id="wallBase" x1="0" y1="0" x2="0" y2="1">
      <stop offset="0" stop-color="#fceaf2"/>
      <stop offset="1" stop-color="#e7bfd1"/>
    </linearGradient>
    <linearGradient id="panelEdge" x1="0" y1="0" x2="1" y2="1">
      <stop offset="0" stop-color="rgba(255,255,255,0.42)"/>
      <stop offset="1" stop-color="rgba(127,53,82,0.24)"/>
    </linearGradient>
    <pattern id="damask" width="64" height="64" patternUnits="userSpaceOnUse">
      <path d="M32 12c-7 0-12 5-12 12 0 6 5 11 12 11s12-5 12-11c0-7-5-12-12-12Zm0 4c5 0 8 3 8 8 0 4-3 7-8 7s-8-3-8-7c0-5 3-8 8-8Z" fill="rgba(141,63,92,0.14)"/>
      <path d="M18 42c8 0 14 6 14 14H4c0-8 6-14 14-14Zm28 0c8 0 14 6 14 14H32c0-8 6-14 14-14Z" fill="rgba(141,63,92,0.08)"/>
    </pattern>
  </defs>

  <rect width="256" height="256" fill="url(#wallBase)"/>
  <rect width="256" height="256" fill="url(#damask)" opacity="0.7"/>

  <g stroke="rgba(126,50,79,0.2)" fill="none">
    <rect x="8" y="8" width="112" height="112" rx="10"/>
    <rect x="136" y="8" width="112" height="112" rx="10"/>
    <rect x="8" y="136" width="112" height="112" rx="10"/>
    <rect x="136" y="136" width="112" height="112" rx="10"/>
  </g>

  <g opacity="0.8">
    <rect x="8" y="8" width="112" height="112" rx="10" fill="url(#panelEdge)"/>
    <rect x="136" y="8" width="112" height="112" rx="10" fill="url(#panelEdge)"/>
    <rect x="8" y="136" width="112" height="112" rx="10" fill="url(#panelEdge)"/>
    <rect x="136" y="136" width="112" height="112" rx="10" fill="url(#panelEdge)"/>
  </g>

  <path d="M0 128h256" stroke="rgba(121,45,74,0.2)" stroke-width="2"/>
  <path d="M128 0v256" stroke="rgba(121,45,74,0.2)" stroke-width="2"/>
</svg>
